<?xml version="1.0" encoding="UTF-8" standalone="no"?>
<svg
   width="512"
   height="512"
   viewBox="0 0 512 512"
   version="1.1"
   id="svg4"
   sodipodi:docname="logo.svg"
   inkscape:version="1.1.1 (3bf5ae0d25, 2021-09-20)"
   inkscape:export-filename="F:\wanawallet\logo.png"
   inkscape:export-xdpi="200"
   inkscape:export-ydpi="200"
   xmlns:inkscape="http://www.inkscape.org/namespaces/inkscape"
   xmlns:sodipodi="http://sodipodi.sourceforge.net/DTD/sodipodi-0.dtd"
   xmlns="http://www.w3.org/2000/svg"
   xmlns:svg="http://www.w3.org/2000/svg">
  <defs
     id="defs8">
    <rect
       x="281.51203"
       y="79.761741"
       width="130.19931"
       height="135.47766"
       id="rect6117" />
    <style
       type="text/css"
       id="style29923" />
    <style
       type="text/css"
       id="style29940" />
    <style
       type="text/css"
       id="style29952" />
  </defs>
  <sodipodi:namedview
     id="namedview6"
     pagecolor="#ffffff"
     bordercolor="#666666"
     borderopacity="1.0"
     inkscape:pageshadow="2"
     inkscape:pageopacity="0.0"
     inkscape:pagecheckerboard="0"
     showgrid="false"
     inkscape:zoom="1.7050781"
     inkscape:cx="193.83276"
     inkscape:cy="263.91753"
     inkscape:window-width="2560"
     inkscape:window-height="1346"
     inkscape:window-x="-11"
     inkscape:window-y="267"
     inkscape:window-maximized="1"
     inkscape:current-layer="layer3" />
  <text
     xml:space="preserve"
     id="text6115"
     style="font-style:normal;font-weight:normal;font-size:53.3333px;line-height:1.25;font-family:sans-serif;white-space:pre;shape-inside:url(#rect6117);fill:#000000;fill-opacity:1;stroke:none"
     transform="translate(19.940435)"
     x="61.132778"
     y="0" />
  <g
     id="g29938"
     transform="matrix(0.21740381,0,0,0.21740381,251.13599,38.828992)" />
  <g
     inkscape:groupmode="layer"
     id="layer1"
     inkscape:label="alipay"
     sodipodi:insensitive="true"
     style="display:inline">
    <path
       d="m 135.06547,341.46737 c -9.50595,-4.15585 -16.27341,-7.20055 -20.29801,-9.12535 -6.12439,7.41927 -12.56376,11.89882 -22.222821,11.89882 -9.659046,0 -16.133408,-5.94941 -15.363482,-13.2637 0.524942,-4.79452 3.814621,-12.63375 18.058225,-11.26889 7.524258,0.69994 10.953918,2.0998 17.113308,4.1296 1.57486,-2.90471 2.90472,-6.12439 3.88462,-9.51907 H 89.00999 v -2.69474 h 13.43867 v -4.82952 H 86.035287 v -2.9747 h 16.413373 v -6.96431 c 0,0 0.13999,-1.08489 1.36488,-1.08489 h 6.71934 v 8.08419 h 17.49827 v 2.97471 h -17.49827 v 4.82952 h 14.27859 a 54.288421,54.288421 0 0 1 -5.77443,14.52358 c 2.23102,0.79618 9.17347,2.95721 20.82296,6.48748 a 34.996564,34.996564 0 1 0 -4.79453,8.80164 z m -28.03225,22.79151 c -24.160749,0 -43.745702,-19.58495 -43.745702,-43.7457 0,-24.16075 19.584953,-43.74571 43.745702,-43.74571 24.16075,0 43.74569,19.58496 43.74569,43.74571 0,24.16075 -19.58494,43.7457 -43.74569,43.7457 z M 91.424761,339.6213 c 6.299373,0 12.353779,-3.81463 17.323289,-10.28899 -7.03431,-3.39467 -12.878728,-5.0745 -19.423084,-5.0745 -5.70445,0 -8.679154,3.49965 -9.204109,6.19439 -0.524942,2.69474 1.0849,9.1691 11.303904,9.1691 z"
       p-id="5841"
       id="path29944"
       style="fill:#3a8ce6;fill-opacity:1;stroke-width:0.102529" />
  </g>
  <g
     inkscape:groupmode="layer"
     id="layer2"
     inkscape:label="wechatpay"
     sodipodi:insensitive="true"
     style="display:inline">
    <path
       d="m 228.34504,360.72829 c -0.9487,-1.05193 -1.92115,-2.04992 -2.96472,-3.02095 l -28.46149,32.36739 -12.61792,-14.18772 -6.71216,7.63332 19.25893,21.90193 28.29546,-32.23252 a 25.330721,28.806969 0 0 1 4.48269,16.18369 26.35059,29.966802 0 0 1 -9.32115,22.44138 35.790317,40.701982 0 0 1 -23.88393,9.926 35.742882,40.648036 0 0 1 -25.21212,-11.32858 26.279438,29.885882 0 0 1 -7.99295,-21.0388 26.35059,29.966802 0 0 1 9.32115,-22.44138 35.790317,40.701982 0 0 1 23.88392,-9.926 37.948646,43.156509 0 0 1 13.61407,2.85911 l 7.11538,-8.09185 a 46.60568,53.001586 0 0 0 -20.72945,-5.55639 c -23.5756,0 -42.69222,19.31255 -42.69222,43.15651 a 34.889036,39.677016 0 0 0 7.39999,24.27553 l -7.39999,18.88098 16.31792,-9.27865 a 45.822991,52.111484 0 0 0 26.3743,9.27865 c 23.5756,0 42.69224,-19.31254 42.69224,-43.15651 a 35.576855,40.459226 0 0 0 -10.76795,-28.64514 z"
       p-id="7325"
       id="path29956"
       style="fill:#3acc9b;fill-opacity:1;stroke-width:0.118561" />
  </g>
  <g
     inkscape:groupmode="layer"
     id="layer3"
     inkscape:label="back"
     style="display:inline">
    <path
       id="path37793"
       style="display:inline;opacity:1;fill:#f06514;fill-opacity:1"
       d="m 157.17102,233.65407 c 66.172,0 120,53.833 120,120 0,66.168 -53.828,120.00195 -120,120.00195 -66.172014,0 -120.000014,-53.83395 -120.000014,-120.00195 0,-66.167 53.828,-120 120.000014,-120 z m 0,-20 c -77.197014,0 -140.000014,62.803 -140.000014,140 0,77.197 62.803,140.00195 140.000014,140.00195 77.197,0 140,-62.80495 140,-140.00195 0,-77.197 -62.803,-140 -140,-140 z" />
    <path
       style="display:inline;opacity:1;fill:#1e9f6f;fill-opacity:1"
       d="m 487.17297,243.65407 c -5.522,0 -10,4.478 -10,10 0,121.309 -98.69195,220.00195 -220.00195,220.00195 -5.522,0 -10,4.479 -10,10 0,5.522 4.478,10 10,10 132.643,0 240.00195,-107.34595 240.00195,-240.00195 0,-5.523 -4.478,-10 -10,-10 z"
       id="path37795" />
    <path
       id="path37779"
       style="display:inline;opacity:1;fill:#0cbd6e;fill-opacity:1"
       d="m 362.17297,33.652114 c 63.413,0 115,51.586999 115,115.000006 0,63.414 -51.587,115.00195 -115,115.00195 -63.414,0 -115.00195,-51.58795 -115.00195,-115.00195 0,-63.413007 51.58795,-115.000006 115.00195,-115.000006 z m 0,-20 c -74.439,0 -135.00195,60.561999 -135.00195,135.000006 0,74.439 60.56295,135.00195 135.00195,135.00195 74.438,0 135,-60.56295 135,-135.00195 0,-74.438007 -60.563,-135.000006 -135,-135.000006 z" />
    <path
       style="display:inline;opacity:1;fill:#a55012;fill-opacity:1"
       d="m 257.17102,13.652114 c -132.637,0 -240.000014,107.339956 -240.000014,240.001956 0,5.521 4.478,10 10,10 5.522,0 10,-4.479 10,-10 0,-121.309 98.691014,-220.001956 220.000014,-220.001956 5.522,0 10,-4.478 10,-10 0,-5.522 -4.478,-10 -10,-10 z"
       id="path2" />
  </g>
  <g
     inkscape:groupmode="layer"
     id="layer4"
     inkscape:label="dots"
     style="display:inline"
     sodipodi:insensitive="true">
    <path
       style="display:inline;opacity:1;fill:#13c896;fill-opacity:1"
       d="m 470.50172,24.815577 c -5.52285,0 -10,4.47715 -10,10 0,5.52285 4.47715,10 10,10 5.52285,0 10,-4.47715 10,-10 0,-5.52285 -4.47715,-10 -10,-10 z"
       id="path37809" />
    <path
       style="display:inline;opacity:1;fill:#fb6311;fill-opacity:1"
       d="m 43.280636,459.17068 c -5.52285,0 -10,4.47715 -10,10 0,5.52285 4.47715,10 10,10 5.52285,0 10,-4.47715 10,-10 0,-5.52285 -4.47715,-10 -10,-10 z"
       id="path37807" />
  </g>
  <g
     inkscape:groupmode="layer"
     id="layer5"
     inkscape:label="nayang"
     style="display:inline"
     sodipodi:insensitive="true">
    <path
       d="M 512,113.77778 C 292.40889,113.77778 113.77778,292.40889 113.77778,512 113.77778,731.59111 292.40889,910.22222 512,910.22222 731.59111,910.22222 910.22222,731.59111 910.22222,512 910.22222,292.40889 731.59111,113.77778 512,113.77778 Z m 0,716.8 c -175.21778,0 -318.57778,-143.36 -318.57778,-318.57778 0,-175.21778 143.36,-318.57778 318.57778,-318.57778 175.21778,0 318.57778,143.36 318.57778,318.57778 0,175.21778 -143.36,318.57778 -318.57778,318.57778 z"
       p-id="1303"
       id="path29927"
       style="fill:#349fc4;fill-opacity:1"
       transform="matrix(0.21740381,0,0,0.21740381,251.13599,38.828992)" />
    <path
       d="m 615.53778,502.89778 c 18.20444,0 32.99555,-13.65333 32.99555,-32.99556 0,-18.20444 -13.65333,-32.99555 -32.99555,-32.99555 H 581.40444 L 620.08889,389.12 c 10.24,-14.79111 7.96444,-35.27111 -5.68889,-45.51111 -14.79111,-10.24 -35.27111,-7.96445 -44.37333,4.55111 l -55.75111,69.40444 -55.75112,-68.26666 c -5.68889,-6.82667 -13.65333,-11.37778 -22.75555,-12.51556 -9.10222,-1.13778 -17.06667,2.27556 -23.89333,7.96445 -6.82667,5.68889 -10.24,13.65333 -11.37778,22.75555 -1.13778,9.10222 2.27555,17.06667 7.96444,23.89334 l 37.54667,46.64888 h -34.13333 c -18.20445,0 -32.99556,13.65334 -32.99556,32.99556 0,18.20444 13.65333,32.99556 32.99556,32.99556 H 481.28 v 36.40888 H 409.6 c -18.20444,0 -32.99556,13.65334 -32.99556,32.99556 0,19.34222 13.65334,32.99556 32.99556,32.99556 h 69.40444 V 675.84 c 0,18.20444 13.65334,32.99556 32.99556,32.99556 18.20444,0 32.99556,-13.65334 32.99556,-32.99556 V 606.43556 H 614.4 c 18.20444,0 32.99556,-13.65334 32.99556,-32.99556 0,-19.34222 -13.65334,-32.99556 -32.99556,-32.99556 h -68.26667 v -36.40888 h 69.40445 z"
       p-id="1304"
       id="path29929"
       style="fill:#f0bf21;fill-opacity:1"
       transform="matrix(0.21740381,0,0,0.21740381,251.13599,38.828992)" />
  </g>
</svg>
